<svg width="10" height="10" viewBox="0 0 10 10" fill="none" xmlns="http://www.w3.org/2000/svg">
<rect width="10" height="10" rx="5" fill="#239B16"/>
<path d="M6.86398 3.66945C6.83816 3.64341 6.80744 3.62275 6.77359 3.60864C6.73974 3.59454 6.70343 3.58728 6.66676 3.58728C6.63009 3.58728 6.59378 3.59454 6.55993 3.60864C6.52608 3.62275 6.49536 3.64341 6.46954 3.66945L4.40009 5.74167L3.53065 4.86945C3.50384 4.84355 3.47219 4.82318 3.43751 4.80951C3.40282 4.79585 3.36579 4.78914 3.32852 4.78979C3.29125 4.79043 3.25446 4.79841 3.22028 4.81327C3.18609 4.82813 3.15516 4.84958 3.12926 4.87639C3.10336 4.9032 3.083 4.93485 3.06933 4.96953C3.05566 5.00422 3.04896 5.04125 3.0496 5.07852C3.05025 5.1158 3.05823 5.15258 3.07309 5.18676C3.08795 5.22095 3.10939 5.25188 3.13621 5.27778L4.20287 6.34445C4.2287 6.37048 4.25942 6.39115 4.29327 6.40525C4.32712 6.41935 4.36342 6.42661 4.40009 6.42661C4.43676 6.42661 4.47307 6.41935 4.50692 6.40525C4.54077 6.39115 4.57149 6.37048 4.59732 6.34445L6.86398 4.07778C6.89218 4.05177 6.91468 4.0202 6.93007 3.98506C6.94546 3.94992 6.95341 3.91197 6.95341 3.87361C6.95341 3.83525 6.94546 3.79731 6.93007 3.76217C6.91468 3.72703 6.89218 3.69546 6.86398 3.66945Z" fill="#08660D"/>
</svg>
