<svg width="24" height="24" viewBox="0 0 24 24" fill="none" xmlns="http://www.w3.org/2000/svg">
<path d="M7.50407 0.75C11.2338 0.75 14.2567 1.509 14.2567 2.55938C14.2567 2.61263 14.2436 2.625 14.2286 2.625H14.2499V13.5578C11.6317 13.8203 9.74995 14.5204 9.74995 15.3476V19.3916C9.04682 19.4618 8.2912 19.4993 7.5022 19.4996C3.77207 19.4996 0.752199 18.6476 0.752199 17.5972V2.65088C0.749949 1.60088 3.77395 0.75 7.50407 0.75Z" fill="#F7C98A"/>
<path opacity="0.1" d="M7.50407 0.75C11.2338 0.75 14.2567 1.509 14.2567 2.55938C14.2567 2.61263 14.2436 2.625 14.2286 2.625H14.2499V13.5578C11.6317 13.8203 9.74995 14.5204 9.74995 15.3476V19.3916C9.04682 19.4618 8.2912 19.4993 7.5022 19.4996C3.77207 19.4996 0.752199 18.6476 0.752199 17.5972V2.65088C0.749949 1.60088 3.77395 0.75 7.50407 0.75Z" fill="#000064"/>
<path opacity="0.1" d="M7.49695 7.122C11.2252 7.122 14.247 6.26963 14.247 5.21925V5.96925C14.247 7.01925 11.2252 7.87163 7.49695 7.87163C3.7687 7.87163 0.746949 7.01925 0.746949 5.96925V5.21925C0.745824 6.27 3.76907 7.12163 7.49695 7.122ZM7.49695 10.122C11.2252 10.122 14.247 9.26963 14.247 8.21925V8.96925C14.247 10.0193 11.2244 10.8713 7.49695 10.8713C3.76945 10.8713 0.746949 10.0196 0.746949 8.96925V8.21925C0.745449 9.26963 3.76907 10.122 7.49695 10.122ZM7.49732 13.122C11.2252 13.122 14.2473 12.2696 14.2473 11.2193V11.9693C14.2473 13.0193 11.2252 13.8716 7.49732 13.8716C3.76945 13.8716 0.747324 13.0193 0.747324 11.9693V11.2193C0.745449 12.2696 3.76907 13.1216 7.49732 13.122ZM7.49732 16.122C11.2252 16.122 14.2473 15.27 14.2473 14.2196V14.9696C14.2473 16.0196 11.2248 16.872 7.49732 16.872C3.76982 16.872 0.747324 16.0196 0.747324 14.9696V14.2196C0.745449 15.27 3.76907 16.1216 7.49732 16.122Z" fill="#000064"/>
<path d="M16.5052 13.446C20.2331 13.446 23.2552 14.2335 23.2552 15.2816C23.2552 15.3352 23.2436 15.3743 23.2286 15.3743H23.25V21.3495C23.25 22.3991 20.2297 23.25 16.5 23.25C12.7702 23.25 9.75 22.398 9.75 21.3484V15.3472C9.75 14.2972 12.777 13.446 16.5052 13.446Z" fill="#F7C98A"/>
<path opacity="0.1" d="M16.5 19.875C20.2279 19.875 23.25 19.0226 23.25 17.9722V18.7222C23.25 19.7715 20.2286 20.625 16.5 20.625C12.7714 20.625 9.75 19.7726 9.75 18.7226V17.9726C9.75 19.0215 12.7729 19.875 16.5 19.875Z" fill="#000064"/>
<path opacity="0.3" d="M7.49665 4.55287C11.2262 4.55287 14.2497 3.70132 14.2497 2.65087C14.2497 1.60043 11.2262 0.748871 7.49665 0.748871C3.76707 0.748871 0.743652 1.60043 0.743652 2.65087C0.743652 3.70132 3.76707 4.55287 7.49665 4.55287Z" fill="white"/>
<path opacity="0.3" d="M16.5004 17.2496C20.2287 17.2496 23.2511 16.3981 23.2511 15.3476C23.2511 14.2972 20.2287 13.4456 16.5004 13.4456C12.772 13.4456 9.74963 14.2972 9.74963 15.3476C9.74963 16.3981 12.772 17.2496 16.5004 17.2496Z" fill="white"/>
<path opacity="0.1" d="M9.75 15.3533V21.3495C9.75 22.3991 12.7729 23.25 16.5 23.25V17.25C12.7796 17.25 9.76275 16.4006 9.75 15.3533Z" fill="#000064"/>
<path opacity="0.1" d="M7.50257 19.5C8.29007 19.5 9.0472 19.4625 9.75032 19.392V15.3473C9.75247 15.2529 9.77702 15.1603 9.82195 15.0773L9.81932 15.0746L5.48132 19.4126C6.1192 19.4693 6.79832 19.5 7.50257 19.5Z" fill="#000064"/>
</svg>
