<svg width="14" height="14" viewBox="0 0 14 14" fill="none" xmlns="http://www.w3.org/2000/svg">
<g opacity="0.5" clip-path="url(#clip0_102_4839)">
<path d="M8.75008 0.583313H2.33341C1.69175 0.583313 1.16675 1.10831 1.16675 1.74998V9.33331C1.16675 9.65415 1.42925 9.91665 1.75008 9.91665C2.07091 9.91665 2.33341 9.65415 2.33341 9.33331V2.33331C2.33341 2.01248 2.59591 1.74998 2.91675 1.74998H8.75008C9.07091 1.74998 9.33341 1.48748 9.33341 1.16665C9.33341 0.845813 9.07091 0.583313 8.75008 0.583313ZM11.0834 2.91665H4.66675C4.02508 2.91665 3.50008 3.44165 3.50008 4.08331V12.25C3.50008 12.8916 4.02508 13.4166 4.66675 13.4166H11.0834C11.7251 13.4166 12.2501 12.8916 12.2501 12.25V4.08331C12.2501 3.44165 11.7251 2.91665 11.0834 2.91665ZM10.5001 12.25H5.25008C4.92925 12.25 4.66675 11.9875 4.66675 11.6666V4.66665C4.66675 4.34581 4.92925 4.08331 5.25008 4.08331H10.5001C10.8209 4.08331 11.0834 4.34581 11.0834 4.66665V11.6666C11.0834 11.9875 10.8209 12.25 10.5001 12.25Z" fill="white"/>
</g>
<defs>
<clipPath id="clip0_102_4839">
<rect width="14" height="14" fill="white"/>
</clipPath>
</defs>
</svg>
