<svg width="20" height="18" viewBox="0 0 20 18" fill="none" xmlns="http://www.w3.org/2000/svg">
<path d="M6.64697 4.35313C6.45197 4.15813 6.45197 3.84113 6.64697 3.64613L9.64697 0.646128C9.84197 0.451128 10.159 0.451128 10.354 0.646128L13.354 3.64613C13.549 3.84113 13.549 4.15813 13.354 4.35313C13.256 4.45113 13.128 4.49912 13 4.49912C12.872 4.49912 12.744 4.45013 12.646 4.35313L10.5 2.20713V8.00013C10.5 8.27613 10.276 8.50013 10 8.50013C9.724 8.50013 9.5 8.27613 9.5 8.00013V2.20713L7.354 4.35313C7.159 4.54913 6.84197 4.54913 6.64697 4.35313ZM15 7.50013C14.724 7.50013 14.5 7.72413 14.5 8.00013C14.5 8.27613 14.724 8.50013 15 8.50013C16.93 8.50013 18.5 10.0701 18.5 12.0001V13.0001C18.5 14.9301 16.93 16.5001 15 16.5001H5C3.07 16.5001 1.5 14.9301 1.5 13.0001V12.0001C1.5 10.0701 3.07 8.50013 5 8.50013C5.276 8.50013 5.5 8.27613 5.5 8.00013C5.5 7.72413 5.276 7.50013 5 7.50013C2.519 7.50013 0.5 9.51913 0.5 12.0001V13.0001C0.5 15.4811 2.519 17.5001 5 17.5001H15C17.481 17.5001 19.5 15.4811 19.5 13.0001V12.0001C19.5 9.51813 17.482 7.50013 15 7.50013ZM15 13.0001C15.552 13.0001 16 12.5521 16 12.0001C16 11.4481 15.552 11.0001 15 11.0001C14.448 11.0001 14 11.4481 14 12.0001C14 12.5521 14.448 13.0001 15 13.0001Z" fill="#8EFFD1"/>
</svg>
