<svg width="19" height="19" viewBox="0 0 19 19" fill="none" xmlns="http://www.w3.org/2000/svg">
<g clip-path="url(#clip0_87_1523)">
<path d="M14.5469 3.85938C12.4863 5.67328 12.7656 8.60938 12.7656 8.60938C12.7656 8.60938 9.74344 4.00544 10.9844 0.296875C9.77253 2.79805 4.45312 3.44078 6.82812 10.3906C3.82227 9.25537 3.85938 5.64062 3.85938 5.64062C3.85938 5.64062 2.07812 7.42188 2.07812 10.9844C2.07813 12.874 2.82879 14.6863 4.16499 16.0225C5.50119 17.3587 7.31346 18.1094 9.20312 18.1094C11.0928 18.1094 12.9051 17.3587 14.2413 16.0225C15.5775 14.6863 16.3281 12.874 16.3281 10.9844C16.3281 7.37437 13.748 7.38002 14.5469 3.85938Z" fill="#F2605C"/>
<path d="M9.5 18.1094C7.125 18.1094 4.75 16.0312 4.75 12.7656C5.04688 14.25 7.42188 14.25 8.01562 14.5469C8.60938 14.8438 6.82812 11.2812 9.5 8.60938C8.01562 10.3906 11.2812 12.4688 11.5781 13.6562C11.875 11.875 12.4688 10.9844 12.4688 10.9844C12.4688 10.9844 15.1406 18.1094 9.5 18.1094Z" fill="#F2A40E"/>
<path opacity="0.25" d="M15.3271 14.6258C15.7973 12.4302 15.4672 10.4515 14.8438 9.20312C14.0805 7.67659 13.7566 5.49872 14.4258 3.97189C12.4985 5.79203 12.7657 8.60938 12.7657 8.60938C12.7657 8.60938 9.74347 4.00544 10.9844 0.296875C10.9053 0.458101 10.8116 0.611734 10.7045 0.755844C9.86133 3.40902 10.2004 7.0677 11.2813 9.5C12.4688 12.1719 12.4688 16.0312 10.6875 17.2188C10.6875 15.4375 9.20316 13.3594 9.20316 13.3594C9.20316 13.3594 6.88753 17.993 9.41097 18.104C10.6103 18.0697 11.7815 17.7329 12.8158 17.1248C13.8501 16.5167 14.7139 15.6571 15.3271 14.6258Z" fill="white"/>
</g>
<defs>
<clipPath id="clip0_87_1523">
<rect width="19" height="19" fill="white"/>
</clipPath>
</defs>
</svg>
