<svg width="24" height="24" viewBox="0 0 24 24" fill="none" xmlns="http://www.w3.org/2000/svg">
<g clip-path="url(#clip0_87_1539)">
<path d="M18.375 4.875C15.7721 7.16625 16.125 10.875 16.125 10.875C16.125 10.875 12.3075 5.0595 13.875 0.375C12.3442 3.53438 5.625 4.34625 8.625 13.125C4.82812 11.691 4.875 7.125 4.875 7.125C4.875 7.125 2.625 9.375 2.625 13.875C2.625 16.2619 3.57321 18.5511 5.26104 20.239C6.94887 21.9268 9.23805 22.875 11.625 22.875C14.0119 22.875 16.3011 21.9268 17.989 20.239C19.6768 18.5511 20.625 16.2619 20.625 13.875C20.625 9.315 17.3659 9.32213 18.375 4.875Z" fill="#F2605C"/>
<path d="M12 22.875C9 22.875 6 20.25 6 16.125C6.375 18 9.375 18 10.125 18.375C10.875 18.75 8.625 14.25 12 10.875C10.125 13.125 14.25 15.75 14.625 17.25C15 15 15.75 13.875 15.75 13.875C15.75 13.875 19.125 22.875 12 22.875Z" fill="#F2A40E"/>
<path opacity="0.25" d="M19.3605 18.4748C19.9545 15.7013 19.5375 13.2019 18.75 11.625C17.7859 9.69675 17.3767 6.94575 18.222 5.01713C15.7875 7.31625 16.125 10.875 16.125 10.875C16.125 10.875 12.3075 5.0595 13.875 0.375C13.7751 0.578654 13.6567 0.772716 13.5214 0.95475C12.4564 4.30613 12.8846 8.92762 14.25 12C15.75 15.375 15.75 20.25 13.5 21.75C13.5 19.5 11.625 16.875 11.625 16.875C11.625 16.875 8.69999 22.728 11.8875 22.8682C13.4024 22.8249 14.8818 22.3994 16.1883 21.6313C17.4948 20.8632 18.5859 19.7774 19.3605 18.4748Z" fill="white"/>
</g>
<defs>
<clipPath id="clip0_87_1539">
<rect width="24" height="24" fill="white"/>
</clipPath>
</defs>
</svg>
