<svg width="16" height="16" viewBox="0 0 16 16" fill="none" xmlns="http://www.w3.org/2000/svg">
<path d="M7.99969 1.4978C6.41668 1.49787 4.88533 2.06121 3.67967 3.08703C2.474 4.11286 1.67269 5.53422 1.41911 7.09679C1.16554 8.65936 1.47624 10.2612 2.29563 11.6156C3.11501 12.9701 4.38962 13.9888 5.89137 14.4895C6.22471 14.5478 6.34971 14.3478 6.34971 14.1728C6.34971 14.0145 6.34137 13.4895 6.34137 12.9311C4.66636 13.2395 4.23303 12.5228 4.09969 12.1478C3.95174 11.7831 3.71721 11.4599 3.41636 11.2061C3.18303 11.0811 2.84969 10.7728 3.40802 10.7645C3.62121 10.7876 3.82568 10.8618 4.00411 10.9807C4.18254 11.0997 4.32967 11.2599 4.43303 11.4478C4.52421 11.6116 4.64681 11.7558 4.79382 11.8721C4.94083 11.9885 5.10934 12.0746 5.28971 12.1257C5.47009 12.1768 5.65877 12.1918 5.84494 12.1699C6.03112 12.1479 6.21114 12.0894 6.37468 11.9978C6.40354 11.6589 6.55459 11.342 6.79969 11.1062C5.31636 10.9395 3.76636 10.3645 3.76636 7.81449C3.75699 7.15192 4.00148 6.51087 4.44969 6.02282C4.24588 5.44697 4.26973 4.81501 4.51636 4.25616C4.51636 4.25616 5.07467 4.08115 6.34969 4.93949C7.44055 4.63947 8.59217 4.63947 9.68303 4.93949C10.958 4.07282 11.5164 4.25616 11.5164 4.25616C11.763 4.815 11.7869 5.44697 11.583 6.02282C12.0326 6.51004 12.2773 7.15164 12.2664 7.81449C12.2664 10.3728 10.708 10.9395 9.22469 11.1062C9.38379 11.2674 9.50633 11.461 9.58397 11.6738C9.66162 11.8866 9.69256 12.1137 9.67469 12.3395C9.67469 13.2312 9.66635 13.9478 9.66635 14.1728C9.66635 14.3478 9.79135 14.5562 10.1247 14.4895C11.6238 13.9847 12.8947 12.9636 13.7106 11.6085C14.5265 10.2534 14.8343 8.65235 14.5789 7.09129C14.3236 5.53023 13.5218 4.11072 12.3167 3.08614C11.1115 2.06157 9.5815 1.49863 7.99969 1.4978Z" fill="white"/>
</svg>
