<svg width="28" height="28" viewBox="0 0 28 28" fill="none" xmlns="http://www.w3.org/2000/svg">
<g clip-path="url(#clip0)">
<path d="M13.9091 23.8182C19.1809 23.8182 23.4546 19.5445 23.4546 14.2727C23.4546 9.00091 19.1809 4.72726 13.9091 4.72726C8.63729 4.72726 4.36365 9.00091 4.36365 14.2727C4.36365 19.5445 8.63729 23.8182 13.9091 23.8182Z" fill="white"/>
<path d="M14 0C11.231 0 8.52428 0.821091 6.222 2.35943C3.91971 3.89777 2.12529 6.08427 1.06566 8.64243C0.00603572 11.2006 -0.271211 14.0155 0.268982 16.7313C0.809175 19.447 2.14255 21.9416 4.10048 23.8995C6.05842 25.8574 8.55298 27.1908 11.2687 27.731C13.9845 28.2712 16.7994 27.9939 19.3575 26.9343C21.9157 25.8747 24.1022 24.0803 25.6406 21.778C27.1789 19.4757 28 16.7689 28 14C28 10.287 26.525 6.72602 23.8995 4.10051C21.274 1.475 17.713 0 14 0ZM11.4654 14.6727L10.7109 6.72727L21.1145 9.72L11.4654 14.6727ZM17.2 21.4764L6.82543 18.4927L16.4454 13.5564L17.2 21.4764ZM7.05816 17.6055H7.07089V17.6182L7.05816 17.6055Z" fill="url(#paint0_linear)"/>
</g>
<defs>
<linearGradient id="paint0_linear" x1="3.63452" y1="22.9109" x2="38.4418" y2="-7.01092" gradientUnits="userSpaceOnUse">
<stop stop-color="#6D78F3"/>
<stop offset="1" stop-color="#7140FC"/>
</linearGradient>
<clipPath id="clip0">
<rect width="28" height="28" fill="white"/>
</clipPath>
</defs>
</svg>
