<svg width="16" height="16" viewBox="0 0 16 16" fill="none" xmlns="http://www.w3.org/2000/svg">
<path d="M11.5597 3.64C11.4015 3.64 11.2468 3.68692 11.1152 3.77483C10.9837 3.86273 10.8811 3.98767 10.8206 4.13386C10.76 4.28004 10.7442 4.44089 10.775 4.59607C10.8059 4.75126 10.8821 4.89381 10.994 5.00569C11.1059 5.11757 11.2484 5.19376 11.4036 5.22463C11.5588 5.2555 11.7196 5.23966 11.8658 5.17911C12.012 5.11856 12.1369 5.01602 12.2248 4.88446C12.3128 4.7529 12.3597 4.59823 12.3597 4.44C12.3597 4.22783 12.2754 4.02435 12.1254 3.87432C11.9753 3.72429 11.7718 3.64 11.5597 3.64ZM14.6263 5.25334C14.6134 4.7002 14.5098 4.15294 14.3197 3.63334C14.1502 3.18876 13.8863 2.78619 13.5463 2.45334C13.2162 2.11162 12.8127 1.84945 12.3663 1.68667C11.8481 1.49078 11.3002 1.38481 10.7463 1.37334C10.0397 1.33334 9.81301 1.33334 7.99967 1.33334C6.18634 1.33334 5.95967 1.33334 5.25301 1.37334C4.69911 1.38481 4.15124 1.49078 3.63301 1.68667C3.18746 1.8511 2.7843 2.11304 2.45301 2.45334C2.11129 2.78345 1.84913 3.18696 1.68634 3.63334C1.49045 4.15156 1.38448 4.69944 1.37301 5.25334C1.33301 5.96 1.33301 6.18667 1.33301 8C1.33301 9.81334 1.33301 10.04 1.37301 10.7467C1.38448 11.3006 1.49045 11.8484 1.68634 12.3667C1.84913 12.813 2.11129 13.2166 2.45301 13.5467C2.7843 13.887 3.18746 14.1489 3.63301 14.3133C4.15124 14.5092 4.69911 14.6152 5.25301 14.6267C5.95967 14.6667 6.18634 14.6667 7.99967 14.6667C9.81301 14.6667 10.0397 14.6667 10.7463 14.6267C11.3002 14.6152 11.8481 14.5092 12.3663 14.3133C12.8127 14.1506 13.2162 13.8884 13.5463 13.5467C13.8878 13.2151 14.1519 12.8121 14.3197 12.3667C14.5098 11.8471 14.6134 11.2998 14.6263 10.7467C14.6263 10.04 14.6663 9.81334 14.6663 8C14.6663 6.18667 14.6663 5.96 14.6263 5.25334ZM13.4263 10.6667C13.4215 11.0899 13.3448 11.5091 13.1997 11.9067C13.0932 12.1968 12.9223 12.459 12.6997 12.6733C12.4834 12.8937 12.2218 13.0643 11.933 13.1733C11.5355 13.3185 11.1162 13.3951 10.693 13.4C10.0263 13.4333 9.77967 13.44 8.02634 13.44C6.27301 13.44 6.02634 13.44 5.35967 13.4C4.92027 13.4082 4.48274 13.3406 4.06634 13.2C3.7902 13.0854 3.54058 12.9152 3.33301 12.7C3.11173 12.4858 2.9429 12.2235 2.83967 11.9333C2.67691 11.5301 2.58664 11.1013 2.57301 10.6667C2.57301 10 2.53301 9.75334 2.53301 8C2.53301 6.24667 2.53301 6 2.57301 5.33334C2.576 4.90071 2.65497 4.47197 2.80634 4.06667C2.92371 3.78528 3.10385 3.53444 3.33301 3.33334C3.53555 3.10411 3.78587 2.92207 4.06634 2.8C4.47271 2.65336 4.90101 2.57672 5.33301 2.57334C5.99967 2.57334 6.24634 2.53334 7.99967 2.53334C9.75301 2.53334 9.99967 2.53334 10.6663 2.57334C11.0895 2.57819 11.5088 2.65483 11.9063 2.8C12.2093 2.91244 12.4812 3.09523 12.6997 3.33334C12.9181 3.53812 13.0888 3.78849 13.1997 4.06667C13.3478 4.47263 13.4245 4.90119 13.4263 5.33334C13.4597 6 13.4663 6.24667 13.4663 8C13.4663 9.75334 13.4597 10 13.4263 10.6667ZM7.99967 4.58C7.32355 4.58132 6.66298 4.78302 6.10144 5.15961C5.53991 5.53621 5.10259 6.0708 4.84476 6.69584C4.58693 7.32088 4.52016 8.00831 4.65287 8.67129C4.78558 9.33426 5.11183 9.94303 5.59039 10.4207C6.06895 10.8983 6.67835 11.2233 7.34158 11.3548C8.00481 11.4862 8.69212 11.4181 9.31665 11.159C9.94119 10.9 10.4749 10.4616 10.8504 9.89936C11.2259 9.33709 11.4263 8.67613 11.4263 8C11.4272 7.55007 11.3391 7.10441 11.1672 6.68864C10.9952 6.27287 10.7427 5.89521 10.4243 5.57737C10.1058 5.25953 9.72764 5.00779 9.31154 4.83662C8.89544 4.66546 8.4496 4.57824 7.99967 4.58ZM7.99967 10.22C7.5606 10.22 7.13139 10.0898 6.76631 9.84587C6.40123 9.60193 6.11669 9.25521 5.94866 8.84956C5.78064 8.44391 5.73667 7.99754 5.82233 7.5669C5.90799 7.13626 6.11942 6.7407 6.4299 6.43023C6.74037 6.11975 7.13594 5.90832 7.56657 5.82266C7.99721 5.737 8.44358 5.78096 8.84923 5.94899C9.25488 6.11702 9.6016 6.40156 9.84554 6.76664C10.0895 7.13171 10.2197 7.56093 10.2197 8C10.2197 8.29154 10.1623 8.58022 10.0507 8.84956C9.93912 9.1189 9.7756 9.36363 9.56945 9.56978C9.36331 9.77593 9.11857 9.93945 8.84923 10.051C8.57989 10.1626 8.29121 10.22 7.99967 10.22Z" fill="white"/>
</svg>
