<svg width="22" height="22" viewBox="0 0 22 22" fill="none" xmlns="http://www.w3.org/2000/svg">
<path d="M18.9273 2.45135L12.0566 7.55431L13.3272 4.54363L18.9273 2.45135Z" fill="#E2761B" stroke="#E2761B" stroke-linecap="round" stroke-linejoin="round"/>
<path d="M3.06543 2.45135L9.88087 7.60264L8.67246 4.54363L3.06543 2.45135Z" fill="#E4761B" stroke="#E4761B" stroke-linecap="round" stroke-linejoin="round"/>
<path d="M16.4549 14.28L14.625 17.0835L18.5403 18.1607L19.6658 14.3421L16.4549 14.28Z" fill="#E4761B" stroke="#E4761B" stroke-linecap="round" stroke-linejoin="round"/>
<path d="M2.34082 14.3421L3.45946 18.1607L7.37472 17.0835L5.54484 14.28L2.34082 14.3421Z" fill="#E4761B" stroke="#E4761B" stroke-linecap="round" stroke-linejoin="round"/>
<path d="M7.15352 9.543L6.0625 11.1933L9.95013 11.366L9.81203 7.18832L7.15352 9.543Z" fill="#E4761B" stroke="#E4761B" stroke-linecap="round" stroke-linejoin="round"/>
<path d="M14.8394 9.543L12.1464 7.13998L12.0566 11.366L15.9374 11.1933L14.8394 9.543Z" fill="#E4761B" stroke="#E4761B" stroke-linecap="round" stroke-linejoin="round"/>
<path d="M7.375 17.0835L9.70896 15.9441L7.69264 14.3697L7.375 17.0835Z" fill="#E4761B" stroke="#E4761B" stroke-linecap="round" stroke-linejoin="round"/>
<path d="M12.2842 15.9441L14.625 17.0835L14.3005 14.3697L12.2842 15.9441Z" fill="#E4761B" stroke="#E4761B" stroke-linecap="round" stroke-linejoin="round"/>
<path d="M14.625 17.0835L12.2842 15.9441L12.4706 17.4702L12.4499 18.1124L14.625 17.0835Z" fill="#D7C1B3" stroke="#D7C1B3" stroke-linecap="round" stroke-linejoin="round"/>
<path d="M7.375 17.0835L9.55014 18.1124L9.53633 17.4702L9.70896 15.9441L7.375 17.0835Z" fill="#D7C1B3" stroke="#D7C1B3" stroke-linecap="round" stroke-linejoin="round"/>
<path d="M9.58399 13.3616L7.63672 12.7885L9.01086 12.1601L9.58399 13.3616Z" fill="#233447" stroke="#233447" stroke-linecap="round" stroke-linejoin="round"/>
<path d="M12.4082 13.3616L12.9813 12.1601L14.3624 12.7885L12.4082 13.3616Z" fill="#233447" stroke="#233447" stroke-linecap="round" stroke-linejoin="round"/>
<path d="M7.3748 17.0835L7.70625 14.28L5.54492 14.3421L7.3748 17.0835Z" fill="#CD6116" stroke="#CD6116" stroke-linecap="round" stroke-linejoin="round"/>
<path d="M14.2939 14.28L14.6254 17.0835L16.4553 14.3421L14.2939 14.28Z" fill="#CD6116" stroke="#CD6116" stroke-linecap="round" stroke-linejoin="round"/>
<path d="M15.9374 11.1933L12.0566 11.366L12.4157 13.3616L12.9888 12.1601L14.3699 12.7884L15.9374 11.1933Z" fill="#CD6116" stroke="#CD6116" stroke-linecap="round" stroke-linejoin="round"/>
<path d="M7.63689 12.7884L9.01793 12.1601L9.58416 13.3616L9.95013 11.366L6.0625 11.1933L7.63689 12.7884Z" fill="#CD6116" stroke="#CD6116" stroke-linecap="round" stroke-linejoin="round"/>
<path d="M6.0625 11.1933L7.69213 14.3697L7.63689 12.7884L6.0625 11.1933Z" fill="#E4751F" stroke="#E4751F" stroke-linecap="round" stroke-linejoin="round"/>
<path d="M14.3698 12.7884L14.3008 14.3697L15.9373 11.1933L14.3698 12.7884Z" fill="#E4751F" stroke="#E4751F" stroke-linecap="round" stroke-linejoin="round"/>
<path d="M9.94996 11.366L9.58398 13.3616L10.0397 15.7163L10.1433 12.6158L9.94996 11.366Z" fill="#E4751F" stroke="#E4751F" stroke-linecap="round" stroke-linejoin="round"/>
<path d="M12.0566 11.366L11.8701 12.6089L11.953 15.7163L12.4156 13.3616L12.0566 11.366Z" fill="#E4751F" stroke="#E4751F" stroke-linecap="round" stroke-linejoin="round"/>
<path d="M12.4158 13.3616L11.9531 15.7163L12.2846 15.9441L14.3009 14.3697L14.3699 12.7885L12.4158 13.3616Z" fill="#F6851B" stroke="#F6851B" stroke-linecap="round" stroke-linejoin="round"/>
<path d="M7.63672 12.7885L7.69196 14.3697L9.70828 15.9441L10.0397 15.7163L9.58399 13.3616L7.63672 12.7885Z" fill="#F6851B" stroke="#F6851B" stroke-linecap="round" stroke-linejoin="round"/>
<path d="M12.4503 18.1124L12.471 17.4702L12.2984 17.3183H9.69515L9.53633 17.4702L9.55014 18.1124L7.375 17.0835L8.13457 17.705L9.67444 18.7753H12.3191L13.8659 17.705L14.6255 17.0835L12.4503 18.1124Z" fill="#C0AD9E" stroke="#C0AD9E" stroke-linecap="round" stroke-linejoin="round"/>
<path d="M12.2844 15.9441L11.953 15.7163H10.0402L9.70876 15.9441L9.53613 17.4702L9.69495 17.3183H12.2982L12.4708 17.4702L12.2844 15.9441Z" fill="#161616" stroke="#161616" stroke-linecap="round" stroke-linejoin="round"/>
<path d="M19.217 7.88576L19.804 5.06843L18.927 2.45135L12.2842 7.38168L14.8391 9.54301L18.4505 10.5995L19.2515 9.6673L18.9063 9.41871L19.4587 8.91463L19.0306 8.58318L19.583 8.16196L19.217 7.88576Z" fill="#763D16" stroke="#763D16" stroke-linecap="round" stroke-linejoin="round"/>
<path d="M2.19629 5.06843L2.78323 7.88576L2.41035 8.16196L2.96277 8.58318L2.54155 8.91463L3.09397 9.41871L2.74871 9.6673L3.5428 10.5995L7.15423 9.54301L9.70916 7.38168L3.06635 2.45135L2.19629 5.06843Z" fill="#763D16" stroke="#763D16" stroke-linecap="round" stroke-linejoin="round"/>
<path d="M18.4508 10.5995L14.8394 9.543L15.9373 11.1933L14.3008 14.3697L16.4552 14.3421H19.6661L18.4508 10.5995Z" fill="#F6851B" stroke="#F6851B" stroke-linecap="round" stroke-linejoin="round"/>
<path d="M7.15375 9.543L3.54233 10.5995L2.34082 14.3421H5.54484L7.69236 14.3697L6.06273 11.1933L7.15375 9.543Z" fill="#F6851B" stroke="#F6851B" stroke-linecap="round" stroke-linejoin="round"/>
<path d="M12.0564 11.366L12.2843 7.38167L13.3339 4.54362H8.67285L9.70863 7.38167L9.95032 11.366L10.0332 12.6227L10.0401 15.7163H11.9528L11.9666 12.6227L12.0564 11.366Z" fill="#F6851B" stroke="#F6851B" stroke-linecap="round" stroke-linejoin="round"/>
</svg>
