<svg width="24" height="24" viewBox="0 0 24 24" fill="none" xmlns="http://www.w3.org/2000/svg">
<path d="M23.25 0.750001C23.25 0.750001 18.225 0.487502 14.775 3.9375C12.4125 6.3 7.76248 11.4375 5.09998 14.4375L9.59998 18.9375C12.5625 16.275 17.7 11.6625 20.1 9.2625C23.5125 5.775 23.25 0.750001 23.25 0.750001Z" fill="#BACAE7"/>
<path d="M16.5 9C17.3284 9 18 8.32843 18 7.5C18 6.67157 17.3284 6 16.5 6C15.6716 6 15 6.67157 15 7.5C15 8.32843 15.6716 9 16.5 9Z" fill="#A0D6EF"/>
<path d="M3.11255 16.65L7.35005 20.925L9.60005 18.9375L5.10005 14.4375L3.11255 16.65Z" fill="#7B8BAF"/>
<path d="M4.16252 17.7375C2.02502 18.75 0.637521 20.5875 0.750021 23.25C3.41252 23.4 5.25002 21.975 6.26252 19.8375L4.16252 17.7375Z" fill="#ED4C49"/>
<path d="M9.30005 9.75H4.68755L1.80005 12.6375L5.92505 13.5L9.30005 9.75ZM10.125 18.45L10.9875 22.575L13.875 19.6875V15.075L10.1625 18.45H10.125Z" fill="#F27E7C"/>
<path opacity="0.15" d="M13.875 15.0375C16.2375 12.9 18.6375 10.65 20.0625 9.225C23.5125 5.775 23.25 0.75 23.25 0.75C23.25 0.75 19.8 6.075 16.125 9.75L8.28752 17.5875L6.15002 19.725L7.35002 20.925L9.60002 18.9375L10.1625 18.45L10.6875 20.9625L13.875 17.7375V15.075" fill="#000064"/>
<path d="M16.5 9C17.3284 9 18 8.32843 18 7.5C18 6.67157 17.3284 6 16.5 6C15.6716 6 15 6.67157 15 7.5C15 8.32843 15.6716 9 16.5 9Z" stroke="#2E4369" stroke-width="2" stroke-linecap="round" stroke-linejoin="round"/>
</svg>
