<svg width="16" height="16" viewBox="0 0 16 16" fill="none" xmlns="http://www.w3.org/2000/svg">
<g clip-path="url(#clip0_322_1534)">
<path d="M9.60714 11.2448C9.15235 11.5783 8.5889 11.7289 8.02837 11.6667C7.46853 11.729 6.90572 11.5787 6.45155 11.2454C6.32635 11.1211 6.15701 11.0515 5.98058 11.0517C5.80416 11.052 5.63501 11.1221 5.51018 11.2468C5.38534 11.3715 5.31497 11.5405 5.31448 11.7169C5.31399 11.8934 5.38341 12.0628 5.50755 12.1882C5.85226 12.4849 6.2529 12.7096 6.68585 12.849C7.11879 12.9885 7.57527 13.0398 8.02837 13C8.48151 13.0396 8.93799 12.9883 9.371 12.849C9.80402 12.7097 10.2048 12.4852 10.5499 12.1888C10.6121 12.127 10.6615 12.0534 10.6952 11.9725C10.729 11.8915 10.7464 11.8047 10.7466 11.717C10.7468 11.6292 10.7296 11.5423 10.6961 11.4613C10.6627 11.3802 10.6135 11.3065 10.5515 11.2444C10.4896 11.1823 10.4159 11.1331 10.3349 11.0995C10.2539 11.0659 10.167 11.0487 10.0793 11.0487C9.99154 11.0487 9.90469 11.0661 9.82367 11.0997C9.74266 11.1334 9.66908 11.1827 9.60715 11.2448L9.60714 11.2448ZM6.13403 10.0011C6.26589 10.0011 6.39477 9.96193 6.50438 9.88864C6.61399 9.81535 6.69941 9.71121 6.74983 9.58937C6.80025 9.46754 6.81341 9.33349 6.78765 9.20418C6.76189 9.07487 6.69836 8.9561 6.6051 8.86289C6.51183 8.76968 6.39303 8.70623 6.2637 8.68054C6.13437 8.65486 6.00033 8.6681 5.87853 8.71859C5.75672 8.76909 5.65263 8.85457 5.57941 8.96422C5.50619 9.07388 5.46713 9.20278 5.46717 9.33464C5.46736 9.5114 5.53769 9.68087 5.66272 9.80583C5.78776 9.93079 5.95726 10.001 6.13403 10.0011ZM10.134 8.66777C10.0022 8.66773 9.87327 8.70679 9.76362 8.78001C9.65396 8.85323 9.56848 8.95733 9.51799 9.07913C9.46749 9.20093 9.45425 9.33497 9.47994 9.4643C9.50562 9.59363 9.56908 9.71244 9.66229 9.8057C9.75549 9.89896 9.87426 9.96249 10.0036 9.98825C10.1329 10.014 10.2669 10.0009 10.3888 9.95043C10.5106 9.90001 10.6147 9.81459 10.688 9.70498C10.7613 9.59537 10.8005 9.46649 10.8005 9.33464C10.8003 9.1579 10.73 8.98845 10.6051 8.86344C10.4802 8.73843 10.3108 8.66807 10.134 8.66777ZM15.3337 7.85352C15.3349 7.32481 15.1694 6.80916 14.8608 6.37989C14.5521 5.95062 14.116 5.62957 13.6145 5.46237C13.1129 5.29518 12.5714 5.29035 12.0669 5.44857C11.5624 5.60679 11.1206 5.92001 10.8044 6.34371C10.138 6.17408 9.45727 6.06727 8.771 6.0247L9.34152 2.22137L10.7332 2.6946C10.7396 3.22401 10.9558 3.72926 11.3344 4.09937C11.713 4.46947 12.223 4.67416 12.7525 4.66848C13.2819 4.66279 13.7874 4.4472 14.158 4.06906C14.5286 3.69092 14.7339 3.18114 14.7289 2.65171V2.63672C14.7161 2.11307 14.5004 1.61486 14.1273 1.24728C13.7541 0.879693 13.2527 0.671506 12.7289 0.66667C12.4283 0.668916 12.1322 0.739391 11.8629 0.872777C11.5936 1.00616 11.3581 1.19898 11.1742 1.43667L9.01534 0.702476C8.92295 0.670859 8.82473 0.659947 8.72765 0.670513C8.63057 0.681079 8.537 0.712864 8.45357 0.763617C8.37014 0.81437 8.2989 0.882849 8.24488 0.964202C8.19086 1.04555 8.1554 1.13779 8.14099 1.23438L7.42334 6.018C6.6719 6.05091 5.92575 6.16003 5.19637 6.34371C4.81015 5.82275 4.2374 5.47137 3.59799 5.36311C2.95859 5.25485 2.30209 5.39809 1.7659 5.76287C1.22971 6.12764 0.855394 6.68567 0.721289 7.32016C0.587185 7.95465 0.70369 8.61642 1.04642 9.16696C0.800772 9.62891 0.670603 10.1435 0.667033 10.6667C0.667033 13.2832 3.88837 15.3333 8.00037 15.3333C12.1124 15.3333 15.3337 13.2832 15.3337 10.6667C15.3301 10.1436 15.2001 9.62925 14.9546 9.1674C15.1995 8.77271 15.3307 8.31803 15.3337 7.85352ZM12.7289 2C12.8607 2 12.9896 2.0391 13.0993 2.11236C13.2089 2.18561 13.2943 2.28973 13.3448 2.41155C13.3953 2.53337 13.4085 2.66741 13.3827 2.79673C13.357 2.92605 13.2935 3.04484 13.2003 3.13807C13.107 3.23131 12.9883 3.2948 12.8589 3.32053C12.7296 3.34625 12.5956 3.33305 12.4738 3.28259C12.3519 3.23213 12.2478 3.14668 12.1746 3.03705C12.1013 2.92742 12.0622 2.79852 12.0622 2.66667C12.0651 2.49075 12.1362 2.32285 12.2606 2.19844C12.3851 2.07403 12.553 2.00287 12.7289 2ZM3.18721 6.66667C3.3944 6.66923 3.59722 6.72663 3.77503 6.83301C3.13153 7.10973 2.53577 7.48635 2.00977 7.94894C2.0071 7.91704 2.00037 7.8856 2.00037 7.85352C2.00077 7.53887 2.12594 7.23722 2.34843 7.01473C2.57092 6.79224 2.87257 6.66707 3.18721 6.66667ZM8.00037 14C4.74776 14 2.00037 12.4733 2.00037 10.6667C2.00037 8.86 4.74776 7.33334 8.00037 7.33334C11.253 7.33334 14.0004 8.86 14.0004 10.6667C14.0004 12.4733 11.253 14 8.00037 14ZM13.991 7.94898C13.465 7.48636 12.8692 7.10973 12.2257 6.83301C12.4035 6.72663 12.6063 6.66924 12.8135 6.66667C13.1282 6.66707 13.4298 6.79224 13.6523 7.01473C13.8748 7.23722 14 7.53887 14.0004 7.85352C14.0004 7.88558 13.9937 7.91708 13.991 7.94898Z" fill="white"/>
</g>
<defs>
<clipPath id="clip0_322_1534">
<rect width="16" height="16" fill="white"/>
</clipPath>
</defs>
</svg>
