<svg width="20" height="20" viewBox="0 0 18 18" fill="none" xmlns="http://www.w3.org/2000/svg">
<path fill-rule="evenodd" clip-rule="evenodd" d="M9 0.666668C13.6024 0.666668 17.3333 4.39763 17.3333 9C17.3333 13.6024 13.6024 17.3333 9 17.3333C4.39763 17.3333 0.666672 13.6024 0.666672 9C0.666672 4.39763 4.39763 0.666668 9 0.666668ZM9 2.33333C5.31811 2.33333 2.33334 5.3181 2.33334 9C2.33334 12.6819 5.31811 15.6667 9 15.6667C12.6819 15.6667 15.6667 12.6819 15.6667 9C15.6667 5.3181 12.6819 2.33333 9 2.33333ZM11.7441 5.91075L7.33334 10.3215L6.25593 9.24408C5.93049 8.91864 5.40285 8.91864 5.07742 9.24408C4.75198 9.56952 4.75198 10.0972 5.07742 10.4226L6.74408 12.0893C7.06952 12.4147 7.59716 12.4147 7.92259 12.0893L12.9226 7.08926C13.248 6.76382 13.248 6.23618 12.9226 5.91075C12.5972 5.58531 12.0695 5.58531 11.7441 5.91075Z" fill="#28A745"/>
</svg>
