<svg width="23" height="23" viewBox="0 0 23 23" fill="none" xmlns="http://www.w3.org/2000/svg">
<g clip-path="url(#clip0_87_1519)">
<path d="M11.156 9.11696C11.2177 9.17936 11.2911 9.22897 11.372 9.26295C11.4529 9.29692 11.5397 9.3146 11.6274 9.31495C11.7154 9.31532 11.8027 9.29825 11.884 9.26474C11.9654 9.23122 12.0393 9.18193 12.1016 9.1197C12.1638 9.05747 12.2131 8.98353 12.2466 8.90215C12.2801 8.82078 12.2972 8.73357 12.2968 8.64556L12.2921 4.43592L13.0417 5.18545C13.1667 5.31048 13.3362 5.38071 13.5131 5.38071C13.6899 5.38071 13.8594 5.31048 13.9845 5.18545C14.1095 5.06043 14.1797 4.89086 14.1797 4.71405C14.1797 4.53724 14.1095 4.36767 13.9845 4.24264L12.0988 2.35702C12.0365 2.29617 11.9628 2.24812 11.882 2.2156C11.719 2.14825 11.5359 2.14825 11.3729 2.2156C11.2921 2.24812 11.2184 2.29617 11.156 2.35702L9.27042 4.24264C9.14539 4.36767 9.07516 4.53724 9.07516 4.71405C9.07516 4.89086 9.14539 5.06043 9.27042 5.18545C9.39544 5.31048 9.56501 5.38071 9.74182 5.38071C9.91863 5.38071 10.0882 5.31048 10.2132 5.18545L10.9628 4.43592L10.958 8.64556C10.9584 8.7333 10.9761 8.8201 11.0101 8.901C11.044 8.98189 11.0936 9.05528 11.156 9.11696ZM14.965 11.3137C14.9653 11.2257 14.9483 11.1385 14.9148 11.0571C14.8813 10.9757 14.832 10.9018 14.7697 10.8396C14.7075 10.7773 14.6336 10.728 14.5522 10.6945C14.4708 10.661 14.3836 10.644 14.2956 10.6443H8.95929C8.87129 10.644 8.78408 10.661 8.7027 10.6945C8.62132 10.728 8.54739 10.7773 8.48515 10.8396C8.42292 10.9018 8.37363 10.9757 8.34012 11.0571C8.3066 11.1385 8.28954 11.2257 8.2899 11.3137C8.29026 11.4014 8.30793 11.4883 8.3419 11.5691C8.37588 11.65 8.42549 11.7234 8.48789 11.7851C8.54957 11.8475 8.62296 11.8971 8.70385 11.9311C8.78475 11.9651 8.87155 11.9827 8.95929 11.9831H14.2956C14.3836 11.9835 14.4708 11.9664 14.5522 11.9329C14.6336 11.8994 14.7075 11.8501 14.7697 11.7878C14.832 11.7256 14.8813 11.6517 14.9148 11.5703C14.9483 11.4889 14.9653 11.4017 14.965 11.3137ZM13.9845 17.442C13.8594 17.3169 13.6899 17.2467 13.5131 17.2467C13.3362 17.2467 13.1667 17.3169 13.0417 17.442L12.2921 18.1915L12.2968 13.9819C12.2968 13.8043 12.2263 13.6341 12.1008 13.5085C11.9752 13.383 11.805 13.3125 11.6274 13.3125C11.4499 13.3125 11.2796 13.383 11.1541 13.5085C11.0286 13.6341 10.958 13.8043 10.958 13.9819L10.9628 18.1915L10.2132 17.442C10.0882 17.3169 9.91863 17.2467 9.74182 17.2467C9.56501 17.2467 9.39544 17.3169 9.27042 17.442C9.14539 17.567 9.07516 17.7366 9.07516 17.9134C9.07516 18.0902 9.1454 18.2598 9.27042 18.3848L11.156 20.2704C11.2184 20.3313 11.2921 20.3793 11.3729 20.4118C11.5359 20.4792 11.719 20.4792 11.882 20.4118C11.9628 20.3793 12.0365 20.3313 12.0988 20.2704L13.9845 18.3848C14.1095 18.2598 14.1797 18.0902 14.1797 17.9134C14.1797 17.7366 14.1095 17.567 13.9845 17.442Z" fill="#8EFFD1"/>
</g>
<defs>
<clipPath id="clip0_87_1519">
<rect width="16" height="16" fill="white" transform="translate(11.6274) rotate(45)"/>
</clipPath>
</defs>
</svg>
