<svg width="24" height="24" viewBox="0 0 24 24" fill="none" xmlns="http://www.w3.org/2000/svg">
<g opacity="0.5">
<path fill-rule="evenodd" clip-rule="evenodd" d="M16.5137 21.5H8.16592C5.09955 21.5 2.74715 20.3924 3.41534 15.9348L4.19338 9.89359C4.60528 7.66934 6.02404 6.81808 7.26889 6.81808H17.4474C18.7105 6.81808 20.0469 7.73341 20.5229 9.89359L21.3009 15.9348C21.8684 19.889 19.5801 21.5 16.5137 21.5Z" stroke="white" stroke-width="1.5" stroke-linecap="round" stroke-linejoin="round"/>
<path d="M16.651 6.5984C16.651 4.21232 14.7167 2.27803 12.3306 2.27803V2.27803C11.1816 2.27316 10.078 2.72619 9.26381 3.53695C8.44963 4.3477 7.99193 5.44939 7.99194 6.5984H7.99194" stroke="white" stroke-width="1.5" stroke-linecap="round" stroke-linejoin="round"/>
<path d="M15.2963 11.1018H15.2506" stroke="white" stroke-width="1.5" stroke-linecap="round" stroke-linejoin="round"/>
<path d="M9.46566 11.1018H9.41989" stroke="white" stroke-width="1.5" stroke-linecap="round" stroke-linejoin="round"/>
</g>
</svg>
