<svg width="16" height="14" viewBox="0 0 16 14" fill="none" xmlns="http://www.w3.org/2000/svg">
<path d="M7.99997 2.49251L13.6475 12.25H2.35247L7.99997 2.49251ZM1.05497 11.5C0.477469 12.4975 1.19747 13.75 2.35247 13.75H13.6475C14.8025 13.75 15.5225 12.4975 14.945 11.5L9.29747 1.74251C8.71997 0.74501 7.27997 0.74501 6.70247 1.74251L1.05497 11.5ZM7.24997 6.25001V7.75001C7.24997 8.16251 7.58747 8.50001 7.99997 8.50001C8.41247 8.50001 8.74997 8.16251 8.74997 7.75001V6.25001C8.74997 5.83751 8.41247 5.50001 7.99997 5.50001C7.58747 5.50001 7.24997 5.83751 7.24997 6.25001ZM7.24997 10H8.74997V11.5H7.24997V10Z" fill="#F0D25F"/>
</svg>
