<svg width="16" height="16" viewBox="0 0 16 16" fill="none" xmlns="http://www.w3.org/2000/svg">
<path d="M14.2738 5.76C14.2738 5.76 14.2738 5.76 14.2738 5.72667C13.8041 4.44415 12.9517 3.33686 11.8321 2.55458C10.7125 1.7723 9.37962 1.35278 8.01379 1.35278C6.64796 1.35278 5.31508 1.7723 4.19546 2.55458C3.07585 3.33686 2.22352 4.44415 1.75379 5.72667C1.75379 5.72667 1.75379 5.72667 1.75379 5.76C1.22921 7.20727 1.22921 8.79274 1.75379 10.24C1.75379 10.24 1.75379 10.24 1.75379 10.2733C2.22352 11.5559 3.07585 12.6631 4.19546 13.4454C5.31508 14.2277 6.64796 14.6472 8.01379 14.6472C9.37962 14.6472 10.7125 14.2277 11.8321 13.4454C12.9517 12.6631 13.8041 11.5559 14.2738 10.2733C14.2738 10.2733 14.2738 10.2733 14.2738 10.24C14.7984 8.79274 14.7984 7.20727 14.2738 5.76ZM2.84046 9.33334C2.60927 8.45948 2.60927 7.54053 2.84046 6.66667H4.08046C3.97381 7.55236 3.97381 8.44765 4.08046 9.33334H2.84046ZM3.38712 10.6667H4.32046C4.47693 11.2612 4.7006 11.836 4.98712 12.38C4.33332 11.9346 3.78679 11.3494 3.38712 10.6667ZM4.32046 5.33334H3.38712C3.78104 4.65273 4.32058 4.06765 4.96712 3.62C4.68749 4.16483 4.47055 4.73961 4.32046 5.33334ZM7.33379 13.1333C6.51497 12.5325 5.93989 11.6568 5.71379 10.6667H7.33379V13.1333ZM7.33379 9.33334H5.42712C5.30272 8.4488 5.30272 7.5512 5.42712 6.66667H7.33379V9.33334ZM7.33379 5.33334H5.71379C5.93989 4.34318 6.51497 3.46755 7.33379 2.86667V5.33334ZM12.6138 5.33334H11.6805C11.524 4.73877 11.3003 4.16396 11.0138 3.62C11.6676 4.06538 12.2141 4.65063 12.6138 5.33334ZM8.66712 2.86667C9.48595 3.46755 10.061 4.34318 10.2871 5.33334H8.66712V2.86667ZM8.66712 13.1333V10.6667H10.2871C10.061 11.6568 9.48595 12.5325 8.66712 13.1333ZM10.5738 9.33334H8.66712V6.66667H10.5738C10.6982 7.5512 10.6982 8.4488 10.5738 9.33334ZM11.0338 12.38C11.3203 11.836 11.544 11.2612 11.7005 10.6667H12.6338C12.2341 11.3494 11.6876 11.9346 11.0338 12.38ZM13.1605 9.33334H11.9205C11.9747 8.89097 12.0014 8.44567 12.0005 8C12.0012 7.55434 11.9745 7.10905 11.9205 6.66667H13.1605C13.3916 7.54053 13.3916 8.45948 13.1605 9.33334Z" fill="white"/>
</svg>
