<svg width="16" height="16" viewBox="0 0 16 16" fill="none" xmlns="http://www.w3.org/2000/svg">
<path d="M13.3337 5.96C13.3267 5.89876 13.3133 5.83842 13.2937 5.78V5.72C13.2616 5.65146 13.2188 5.58845 13.167 5.53334L9.16699 1.53334C9.11188 1.48148 9.04887 1.43872 8.98033 1.40667H8.92033L8.70699 1.33334H4.66699C4.13656 1.33334 3.62785 1.54405 3.25278 1.91912C2.87771 2.2942 2.66699 2.8029 2.66699 3.33334V12.6667C2.66699 13.1971 2.87771 13.7058 3.25278 14.0809C3.62785 14.456 4.13656 14.6667 4.66699 14.6667H11.3337C11.8641 14.6667 12.3728 14.456 12.7479 14.0809C13.1229 13.7058 13.3337 13.1971 13.3337 12.6667V6C13.3337 6 13.3337 6 13.3337 5.96ZM9.33366 3.60667L11.0603 5.33334H9.33366V3.60667ZM12.0003 12.6667C12.0003 12.8435 11.9301 13.0131 11.8051 13.1381C11.68 13.2631 11.5105 13.3333 11.3337 13.3333H4.66699C4.49018 13.3333 4.32061 13.2631 4.19559 13.1381C4.07056 13.0131 4.00033 12.8435 4.00033 12.6667V3.33334C4.00033 3.15652 4.07056 2.98696 4.19559 2.86193C4.32061 2.73691 4.49018 2.66667 4.66699 2.66667H8.00033V6C8.00033 6.17681 8.07056 6.34638 8.19559 6.47141C8.32061 6.59643 8.49018 6.66667 8.66699 6.66667H12.0003V12.6667Z" fill="white"/>
</svg>
